<?xml version="1.0" encoding="iso-8859-1"?>
<!-- Uploaded to: SVG Repo, www.svgrepo.com, Generator: SVG Repo Mixer Tools -->
<svg version="1.1" id="Layer_1" xmlns="http://www.w3.org/2000/svg" xmlns:xlink="http://www.w3.org/1999/xlink" 
	 viewBox="0 0 512 512" xml:space="preserve">
<g>
	<circle style="fill:#FFDA44;" cx="256" cy="256" r="256"/>
	<path style="fill:#FFDA44;" d="M64.867,401.711c5.653,7.398,11.797,14.545,18.275,21.253l-11.274,10.888
		c-6.896-7.137-13.437-14.754-19.456-22.632L64.867,401.711z"/>
	<path style="fill:#FFDA44;" d="M72.756,77.228l11.222,10.951C39.926,133.319,15.673,192.92,15.673,256
		c0,44.419,12.215,87.813,35.318,125.471l-13.364,8.192C13.009,349.539,0,303.313,0,256C0,188.803,25.84,125.315,72.756,77.228z"/>
	<path style="fill:#FFDA44;" d="M131.197,50.584l-8.15-13.396C163.004,12.863,208.98,0,256,0c47.752,0,94.333,13.239,134.708,38.275
		l-8.255,13.312C344.555,28.097,300.826,15.673,256,15.673C211.853,15.673,168.699,27.742,131.197,50.584z"/>
</g>
<path style="fill:#6A563D;" d="M421.094,41.723v198.969c0,123.099-100.477,223.242-223.974,223.242h-13.145
	c-0.69,0.282-1.369,0.575-2.069,0.846l-0.324-0.846H91.951V342.288c-0.397-2.424-0.731-4.859-0.982-7.325l0.982-0.094v-36.446
	c-0.282-1.693-0.522-3.396-0.731-5.099l0.731-0.094V40.594l11.901,7.231c35.485,21.535,92.797,34.398,153.328,34.398
	c59.601,0,115.064-12.288,152.158-33.708L421.094,41.723z"/>
<path style="fill:#A0815C;" d="M201.54,160.204c2.905,0,5.747,0.272,8.516,0.752c-15.579-15.423-35.224-23.218-58.796-23.218
	c-15.82,0-30.824,4.556-43.635,13.197v94.281c10.428-3.02,21.232-4.556,32.266-4.556c9.174,0,18.119,1.076,26.687,3.103
	c-8.746-8.871-14.148-21.034-14.148-34.45C152.43,182.241,174.456,160.204,201.54,160.204z"/>
<path style="fill:#6A563D;" d="M151.259,122.065c44.753,0,78.587,24.618,97.844,71.199c3.176,7.68,5.695,15.329,7.701,22.601
	c2.048-7.273,4.608-14.942,7.816-22.632c19.435-46.55,53.123-71.168,97.426-71.168c15.381,0,30.135,3.594,43.374,10.491v-2.988
	v-9.404V68.315c-38.787,18.892-91.899,29.581-148.24,29.581c-57.898,0-111.438-10.867-149.556-30.093v53.405v8.359v3.135
	C120.936,125.712,135.774,122.065,151.259,122.065z"/>
<g>
	<path style="fill:#FFFFFF;" d="M344.691,209.314c0-18.432-15.005-33.437-33.437-33.437c-18.442,0-33.437,15.005-33.437,33.437
		c0,18.442,14.994,33.437,33.437,33.437C329.686,242.751,344.691,227.756,344.691,209.314z M291.918,209.316
		c0-10.676,8.655-19.331,19.331-19.331c10.676,0,19.331,8.655,19.331,19.331c0,10.676-8.655,19.331-19.331,19.331
		C300.573,228.647,291.918,219.992,291.918,209.316z"/>
	<path style="fill:#FFFFFF;" d="M201.54,242.751c18.432,0,33.437-14.994,33.437-33.437c0-18.432-15.005-33.437-33.437-33.437
		c-18.442,0-33.437,15.005-33.437,33.437C168.103,227.756,183.097,242.751,201.54,242.751z M201.535,189.985
		c10.676,0,19.331,8.655,19.331,19.331c0,10.676-8.655,19.331-19.331,19.331s-19.331-8.655-19.331-19.331
		S190.859,189.985,201.535,189.985z"/>
</g>
<path style="fill:#A0815C;" d="M255.875,356.645c0,23.834-7.178,46.738-20.762,66.226c-6.604,9.488-14.482,17.836-23.395,24.879
	c52.527-3.647,99.746-26.781,134.416-62.182h-49.382v-15.673h63.269c2.727-3.396,5.339-6.886,7.847-10.449h-92.014v-15.673h102.024
	c1.964-3.417,3.835-6.907,5.611-10.449h-84.647v-15.673h91.732c9.571-23.813,14.848-49.779,14.848-76.957v-89.934
	c-12.748-8.516-27.658-13.019-43.374-13.019c-23.197,0-42.621,7.722-58.117,23.019c2.393-0.366,4.838-0.554,7.325-0.554
	c27.073,0,49.11,22.037,49.11,49.11c0,27.084-22.037,49.11-49.11,49.11c-18.244,0-34.189-10.01-42.653-24.806
	c-3.553,16.812-4.106,29.111-4.117,29.309l-15.663-0.063c-0.01-0.199-0.502-12.946-4.096-30.187
	c-8.328,15.329-24.566,25.746-43.186,25.746h-0.042C234.13,278.967,255.875,315.319,255.875,356.645z M262.269,317.649h26.122
	v15.673h-26.122V317.649z"/>
<path style="fill:#6A563D;" d="M222.26,413.915c11.734-16.854,17.941-36.655,17.941-57.271c0-55.306-45.004-100.31-100.31-100.31
	c-10.47,0-20.699,1.588-30.511,4.723c5.151,19.466,16.175,37.177,31.566,50.427l-10.23,11.88
	c-9.091-7.837-16.865-17.032-23.092-27.146v0.784c4.023,22.643,15.705,43.207,33.322,58.368l-10.219,11.88
	c-9.143-7.868-16.896-17-23.103-27.031v0.616c4.012,22.685,15.663,43.238,33.364,58.462l-10.219,11.88
	c-9.164-7.889-16.938-17.011-23.144-27.042v64.125h73.143C197.444,440.822,211.728,429.035,222.26,413.915z M164.342,431.347
	c-7.857-3.056-15.399-6.989-22.42-11.688l8.721-13.025c6.07,4.065,12.591,7.465,19.381,10.105L164.342,431.347z M164.342,387.462
	c-7.857-3.056-15.399-6.988-22.417-11.687l8.72-13.025c6.069,4.064,12.589,7.463,19.379,10.103L164.342,387.462z M164.342,343.576
	c-7.854-3.055-15.396-6.986-22.415-11.686l8.719-13.025c6.07,4.063,12.59,7.463,19.379,10.102L164.342,343.576z"/>
<circle cx="201.529" cy="209.314" r="19.331"/>
<circle cx="311.244" cy="209.314" r="19.331"/>
<path d="M107.624,67.806c38.115,19.222,91.654,30.089,149.553,30.089c56.347,0,109.454-10.685,148.243-29.575V98.22h15.673V41.725
	l-11.756,6.789c-37.092,21.421-92.552,33.707-152.16,33.707c-60.524,0-117.841-12.859-153.324-34.396l-11.902-7.227V98.22h15.673
	V67.806z"/>
<path d="M170.024,416.739c-6.791-2.64-13.311-6.041-19.381-10.105l-8.721,13.025c7.021,4.7,14.564,8.633,22.42,11.688
	L170.024,416.739z"/>
<path d="M170.024,372.853c-6.791-2.64-13.311-6.04-19.379-10.103l-8.72,13.025c7.019,4.699,14.561,8.631,22.417,11.687
	L170.024,372.853z"/>
<path d="M170.024,328.967c-6.789-2.639-13.309-6.04-19.379-10.102l-8.719,13.025c7.02,4.699,14.562,8.631,22.415,11.686
	L170.024,328.967z"/>
<rect x="262.269" y="317.649" width="26.122" height="15.673"/>
<path d="M0,256c0,47.314,13.011,93.536,37.626,133.666l13.36-8.195C27.885,343.808,15.673,300.421,15.673,256
	c0-63.082,24.257-122.683,68.303-167.823L72.757,77.232C25.839,125.317,0,188.804,0,256z"/>
<path d="M52.411,411.224c6.018,7.88,12.563,15.493,19.457,22.628l11.272-10.89c-6.474-6.702-12.622-13.851-18.272-21.251
	L52.411,411.224z"/>
<path d="M440.132,78.148l-11.272,10.89c43.506,45.033,67.467,104.328,67.467,166.962c0,64.193-24.998,124.545-70.39,169.937
	c-45.392,45.391-105.744,70.39-169.937,70.39c-42.874,0-84.095-11.138-120.59-32.392h46.171l0.329,0.846
	c0.694-0.27,1.374-0.563,2.062-0.846h13.153c123.496,0,223.969-100.146,223.969-223.24V120.163H405.42v12.391
	c-13.24-6.894-27.994-10.488-43.377-10.488c-44.297,0-77.985,24.61-97.422,71.168c-3.21,7.69-5.773,15.355-7.818,22.628
	c-2.004-7.267-4.528-14.921-7.703-22.603c-19.253-46.575-53.085-71.194-97.838-71.194c-15.485,0-30.331,3.647-43.638,10.63v-11.488
	H91.951v342.727h14.709C150.357,495.38,201.947,512,256,512c68.38,0,132.668-26.628,181.019-74.981S512,324.38,512,256
	C512,189.281,486.476,126.118,440.132,78.148z M311.249,175.879c18.437,0,33.437,14.999,33.437,33.437s-15,33.437-33.437,33.437
	c-18.437,0-33.437-14.999-33.437-33.437C277.812,190.88,292.812,175.879,311.249,175.879z M264.484,262.926
	c0.008-0.197,0.564-12.494,4.114-29.313c8.468,14.806,24.408,24.813,42.652,24.813c27.08,0,49.11-22.031,49.11-49.11
	s-22.031-49.11-49.11-49.11c-2.487,0-4.931,0.189-7.32,0.548c15.499-15.289,34.924-23.013,58.114-23.013
	c15.719,0,30.628,4.496,43.377,13.019v89.933c0,27.177-5.277,53.146-14.849,76.955h-91.731v15.673h84.65
	c-1.778,3.54-3.646,7.028-5.617,10.449H275.853v15.673h92.011c-2.506,3.566-5.119,7.051-7.839,10.449h-63.274v15.673h49.385
	c-34.67,35.402-81.891,58.537-134.421,62.177c8.91-7.034,16.794-15.389,23.4-24.874c13.577-19.489,20.754-42.388,20.754-66.224
	c0-41.331-21.735-77.676-54.371-98.221c0.013,0,0.024,0.001,0.037,0.001c18.627,0,34.865-10.425,43.187-25.746
	c3.602,17.243,4.092,29.982,4.098,30.181L264.484,262.926z M234.972,209.316c0,18.437-15,33.437-33.437,33.437
	s-33.437-14.999-33.437-33.437s15-33.437,33.437-33.437S234.972,190.88,234.972,209.316z M151.263,137.741
	c23.565,0,43.217,7.793,58.791,23.22c-2.769-0.487-5.612-0.754-8.519-0.754c-27.08,0-49.11,22.031-49.11,49.11
	c0,13.412,5.409,25.58,14.154,34.452c-8.573-2.027-17.509-3.105-26.693-3.105c-11.03,0-21.834,1.533-32.262,4.552v-94.282
	C120.431,142.295,135.435,137.741,151.263,137.741z M107.624,340.832v-0.618c6.203,10.038,13.96,19.168,23.1,27.038l10.226-11.877
	c-17.617-15.169-29.303-35.732-33.326-58.375v-0.777c6.233,10.114,13.998,19.309,23.095,27.142l10.227-11.877
	c-15.388-13.252-26.419-30.966-31.565-50.424c9.814-3.134,20.039-4.725,30.505-4.725c55.312,0,100.31,44.999,100.31,100.31
	c0,20.615-6.205,40.417-17.941,57.266c-10.532,15.118-24.808,26.908-41.485,34.349h-73.147v-64.125
	c6.205,10.03,13.976,19.155,23.146,27.042l10.22-11.882C123.291,384.071,111.635,363.522,107.624,340.832z"/>
<path d="M256,15.673c44.826,0,88.553,12.421,126.452,35.917l8.259-13.32C350.329,13.234,303.748,0,256,0
	c-47.021,0-92.998,12.862-132.957,37.192l8.151,13.388C168.697,27.744,211.854,15.673,256,15.673z"/>
<g>
	<path style="fill:#FFFFFF;" d="M417.751,384.168c29.188-36.788,44.616-81.107,44.616-128.168c0-4.699-0.16-9.447-0.475-14.112
		l-15.638,1.057c0.292,4.315,0.44,8.707,0.44,13.055c0,43.487-14.254,84.438-41.221,118.428L417.751,384.168z"/>
	<path style="fill:#FFFFFF;" d="M456.003,204.953l-15.189,3.865c1.592,6.255,2.878,12.67,3.822,19.067l15.505-2.289
		C459.12,218.67,457.727,211.726,456.003,204.953z"/>
</g>
</svg>
